<svg class="position-absolute arrows" width="39" height="33" viewBox="0 0 39 33" fill="none" xmlns="http://www.w3.org/2000/svg">
                <path
                    d="M16.9219 32.3158C17.2131 32.1952 17.4621 31.991 17.6373 31.7289C17.8124 31.4669 17.906 31.1588 17.906 30.8435L17.906 18.0935L37.031 18.0935C37.4537 18.0935 37.8591 17.9256 38.158 17.6267C38.4569 17.3279 38.6248 16.9225 38.6248 16.4998C38.6248 16.0771 38.4569 15.6717 38.158 15.3728C37.8591 15.074 37.4537 14.906 37.031 14.906L17.906 14.906L17.906 2.15604C17.9063 1.84064 17.813 1.53226 17.6378 1.26994C17.4627 1.00762 17.2137 0.803153 16.9224 0.682422C16.631 0.561692 16.3103 0.530128 16.001 0.591727C15.6917 0.653326 15.4076 0.805318 15.1847 1.02846L0.840961 15.3722C0.69278 15.5202 0.575227 15.696 0.495023 15.8895C0.414818 16.083 0.373536 16.2903 0.373536 16.4998C0.373536 16.7092 0.414818 16.9166 0.495023 17.1101C0.575227 17.3036 0.69278 17.4794 0.840961 17.6274L15.1847 31.9711C15.4077 32.1939 15.6918 32.3456 16.001 32.407C16.3102 32.4683 16.6307 32.4366 16.9219 32.3158Z"
                    fill="#09384E" />
            </svg>